# xmcd
#
# Track frame offsets:
#	150
#	15230
#	34967
#
# Disc length: 655 seconds
#
# Revision: 0
# Processed by: cddbd v1.4PL0 Copyright (c) Steve Scherf et al.
# Submitted via: dBpowerAMP V4.0
#
DISCID=17028d03
DTITLE=Emma - Spend A Little Time
DYEAR=2003
DGENRE=Country
TTITLE0=Spend A Little Time
TTITLE1=How Can You Say That You Love Me
TTITLE2=I Tell You
EXTD=
EXTT0=
EXTT1=
EXTT2=
PLAYORDER=
